<?xml version="1.0" encoding="UTF-8"?>
<svg width="32" height="32" viewBox="0 0 32 32" fill="none" xmlns="http://www.w3.org/2000/svg">
  <path d="M16 3C8.82 3 3 8.82 3 16C3 23.18 8.82 29 16 29C23.18 29 29 23.18 29 16C29 8.82 23.18 3 16 3ZM16 5C22.08 5 27 9.92 27 16C27 22.08 22.08 27 16 27C9.92 27 5 22.08 5 16C5 9.92 9.92 5 16 5Z" fill="#43C9ED"/>
  <path d="M16 7V16L23 20" stroke="#43C9ED" stroke-width="2" stroke-linecap="round" stroke-linejoin="round"/>
  <path d="M8 12L16 16L8 20" stroke="#43C9ED" stroke-width="2" stroke-linecap="round" stroke-linejoin="round"/>
  <circle cx="16" cy="16" r="2" fill="#43C9ED"/>
  <circle cx="8" cy="12" r="2" fill="#43C9ED"/>
  <circle cx="8" cy="20" r="2" fill="#43C9ED"/>
  <circle cx="23" cy="20" r="2" fill="#43C9ED"/>
</svg> 