<?xml version="1.0" encoding="UTF-8"?>
<svg width="32" height="32" viewBox="0 0 32 32" fill="none" xmlns="http://www.w3.org/2000/svg">
  <path d="M16 3C8.82 3 3 8.82 3 16C3 23.18 8.82 29 16 29C23.18 29 29 23.18 29 16C29 8.82 23.18 3 16 3ZM16 7C18.21 7 20 8.79 20 11C20 13.21 18.21 15 16 15C13.79 15 12 13.21 12 11C12 8.79 13.79 7 16 7ZM16 25.2C13 25.2 10.3 23.7 8.8 21.4C8.9 18.7 14.4 17.2 16 17.2C17.6 17.2 23.1 18.7 23.2 21.4C21.7 23.7 19 25.2 16 25.2Z" fill="#F89939"/>
  <path d="M20 11C20 13.21 18.21 15 16 15C13.79 15 12 13.21 12 11C12 8.79 13.79 7 16 7C18.21 7 20 8.79 20 11Z" fill="#3499CD"/>
  <path d="M23.2 21.4C23.1 18.7 17.6 17.2 16 17.2C14.4 17.2 8.9 18.7 8.8 21.4C10.3 23.7 13 25.2 16 25.2C19 25.2 21.7 23.7 23.2 21.4Z" fill="#3499CD"/>
</svg> 